<svg width="28" height="20" viewBox="0 0 28 20" fill="none" xmlns="http://www.w3.org/2000/svg">
<g clip-path="url(#clip0_205_109)">
<rect x="0.5" width="27.5" height="20" rx="2.5" fill="#1A47B8"/>
<path fill-rule="evenodd" clip-rule="evenodd" d="M3.42544 0H0.5V3.33333L25.0587 20L28 20V16.6667L3.42544 0Z" fill="white"/>
<path d="M1.47572 0L28 18.0472V20H27.0471L0.5 1.93408V0H1.47572Z" fill="#F93939"/>
<path fill-rule="evenodd" clip-rule="evenodd" d="M25.381 0H28V3.33333C28 3.33333 10.989 14.4374 3.11905 20H0.5V16.6667L25.381 0Z" fill="white"/>
<path d="M28 0H27.1118L0.5 18.0628V20H1.47572L28 1.94868V0Z" fill="#F93939"/>
<path fill-rule="evenodd" clip-rule="evenodd" d="M10.5009 0H18.0219V6.16909H28V13.8268H18.0219V20H10.5009V13.8268H0.5V6.16909H10.5009V0Z" fill="white"/>
<path fill-rule="evenodd" clip-rule="evenodd" d="M12.0789 0H16.4211V7.69231H28V12.3077H16.4211V20H12.0789V12.3077H0.5V7.69231H12.0789V0Z" fill="#F93939"/>
</g>
<defs>
<clipPath id="clip0_205_109">
<rect x="0.5" width="27.5" height="20" rx="2.5" fill="white"/>
</clipPath>
</defs>
</svg>
