<svg width="21" height="20" viewBox="0 0 21 20" fill="none" xmlns="http://www.w3.org/2000/svg">
<path d="M8.379 7.5C8.883 6.89 9.646 6.5 10.5 6.5C11.354 6.5 12.117 6.89 12.621 7.5C12.9528 7.90231 13.1634 8.39068 13.2282 8.90814C13.293 9.4256 13.2093 9.95081 12.9869 10.4225C12.7645 10.8942 12.4126 11.293 11.9722 11.5722C11.5317 11.8515 11.021 11.9998 10.4995 11.9998C9.978 11.9998 9.46725 11.8515 9.02683 11.5722C8.58642 11.293 8.23448 10.8942 8.01209 10.4225C7.7897 9.95081 7.70602 9.4256 7.7708 8.90814C7.83559 8.39068 8.04618 7.90231 8.378 7.5H8.379ZM14.25 9.25C14.25 8.618 14.094 8.022 13.818 7.5H18C18.3978 7.5 18.7794 7.65804 19.0607 7.93934C19.342 8.22064 19.5 8.60218 19.5 9V9.5C19.5 11.087 18.294 12.712 16.185 13.284C15.9683 12.8947 15.6514 12.5704 15.2673 12.3446C14.8831 12.1189 14.4456 11.9999 14 12H13.05C13.429 11.6493 13.7313 11.2239 13.9379 10.7506C14.1444 10.2773 14.2507 9.76639 14.25 9.25ZM14 13C14.1971 12.9995 14.3924 13.0379 14.5746 13.1131C14.7569 13.1883 14.9224 13.2988 15.0618 13.4382C15.2012 13.5776 15.3117 13.7431 15.3869 13.9254C15.4621 14.1076 15.5005 14.3029 15.5 14.5V15C15.5 16.971 13.64 19 10.5 19C7.36 19 5.5 16.971 5.5 15V14.5C5.49947 14.3029 5.53791 14.1076 5.61311 13.9254C5.6883 13.7431 5.79877 13.5776 5.93816 13.4382C6.07756 13.2988 6.24312 13.1883 6.42535 13.1131C6.60758 13.0379 6.80287 12.9995 7 13H14ZM1.5 9.5C1.5 11.087 2.706 12.712 4.815 13.284C5.03173 12.8947 5.34858 12.5704 5.73274 12.3446C6.1169 12.1189 6.55442 11.9999 7 12H7.95C7.57097 11.6493 7.26867 11.2239 7.06214 10.7506C6.85561 10.2773 6.74933 9.76639 6.75 9.25C6.75 8.618 6.906 8.022 7.183 7.5H3C2.60218 7.5 2.22064 7.65804 1.93934 7.93934C1.65804 8.22064 1.5 8.60218 1.5 9V9.5ZM9.25 3.75C9.25 3.02065 8.96027 2.32118 8.44454 1.80546C7.92882 1.28973 7.22935 1 6.5 1C5.77065 1 5.07118 1.28973 4.55546 1.80546C4.03973 2.32118 3.75 3.02065 3.75 3.75C3.75 4.47935 4.03973 5.17882 4.55546 5.69454C5.07118 6.21027 5.77065 6.5 6.5 6.5C7.22935 6.5 7.92882 6.21027 8.44454 5.69454C8.96027 5.17882 9.25 4.47935 9.25 3.75ZM17.25 3.75C17.25 3.02065 16.9603 2.32118 16.4445 1.80546C15.9288 1.28973 15.2293 1 14.5 1C13.7707 1 13.0712 1.28973 12.5555 1.80546C12.0397 2.32118 11.75 3.02065 11.75 3.75C11.75 4.47935 12.0397 5.17882 12.5555 5.69454C13.0712 6.21027 13.7707 6.5 14.5 6.5C15.2293 6.5 15.9288 6.21027 16.4445 5.69454C16.9603 5.17882 17.25 4.47935 17.25 3.75Z" fill="#F9C213"/>
</svg>
