<svg width="16" height="18" viewBox="0 0 16 18" fill="none" xmlns="http://www.w3.org/2000/svg">
<path d="M6.6575 17.7741C2.86942 17.7741 0.967773 16.3593 0.967773 13.5448V11.3237C0.967773 8.63098 3.12805 7.29222 7.43338 7.29222C9.59365 7.29222 10.6586 6.77498 10.6586 5.72527V5.0711C10.6586 3.54978 9.57844 2.78912 7.43338 2.78912C5.57737 2.78912 4.64936 3.54978 4.64936 5.0711V6.37943H1.42417V4.43215C1.42417 1.61771 3.43231 0.202881 7.43338 0.202881C11.7387 0.202881 13.899 1.61771 13.899 4.43215V15.1727C13.899 16.694 14.3249 17.4546 15.1921 17.4546H11.9669C11.0998 17.4546 10.6738 16.694 10.6738 15.1727C10.6586 16.907 9.33502 17.7741 6.6575 17.7741ZM7.43338 9.89368C5.2731 9.89368 4.20818 10.5935 4.20818 11.9779V12.8907C4.20818 14.412 5.28832 15.1727 7.43338 15.1727C9.59365 15.1727 10.6586 14.1534 10.6586 12.0996V8.72226C10.6586 9.51335 9.59365 9.89368 7.43338 9.89368Z" fill="white"/>
</svg>
