<svg width="16" height="18" viewBox="0 0 16 18" fill="none" xmlns="http://www.w3.org/2000/svg">
<path d="M6.58133 17.7741C2.79324 17.7741 0.891602 16.3593 0.891602 13.5448V11.3237C0.891602 8.63098 3.05187 7.29222 7.3572 7.29222C9.51748 7.29222 10.5824 6.77498 10.5824 5.72527V5.0711C10.5824 3.54978 9.50226 2.78912 7.3572 2.78912C5.5012 2.78912 4.57319 3.54978 4.57319 5.0711V6.37943H1.348V4.43215C1.348 1.61771 3.35614 0.202881 7.3572 0.202881C11.6625 0.202881 13.8228 1.61771 13.8228 4.43215V15.1727C13.8228 16.694 14.2488 17.4546 15.1159 17.4546H11.8907C11.0236 17.4546 10.5976 16.694 10.5976 15.1727C10.5824 16.907 9.25885 17.7741 6.58133 17.7741ZM7.3572 9.89368C5.19693 9.89368 4.13201 10.5935 4.13201 11.9779V12.8907C4.13201 14.412 5.21215 15.1727 7.3572 15.1727C9.51748 15.1727 10.5824 14.1534 10.5824 12.0996V8.72226C10.5824 9.51335 9.51748 9.89368 7.3572 9.89368Z" fill="white"/>
</svg>
