<svg width="54" height="9" viewBox="0 0 54 9" fill="none" xmlns="http://www.w3.org/2000/svg">
<path d="M53.7031 0.52832C50.6604 2.24741 47.4809 3.72309 44.1948 4.92493C42.3844 5.59431 40.5893 6.1572 38.8246 6.62881C37.4402 6.99392 36.0558 7.3134 34.7018 7.58724C32.861 7.95235 31.081 8.21098 29.3315 8.40875C28.008 8.54567 26.7149 8.65216 25.4522 8.71301C23.6266 8.80429 21.8619 8.80429 20.1732 8.74344C18.6823 8.6978 17.2371 8.59131 15.8831 8.45439C13.9814 8.25662 12.2167 7.99799 10.6041 7.70894C4.15372 6.52231 0.183076 4.78801 0.0917969 4.74237C0.198289 4.7728 4.30585 5.71602 10.6041 6.30933C12.2319 6.46146 13.9966 6.59838 15.8831 6.67445C17.2523 6.7353 18.6975 6.76573 20.1732 6.78094C21.8771 6.78094 23.6418 6.75051 25.4522 6.65923C26.7301 6.59838 28.0232 6.5071 29.3315 6.37018C31.0963 6.20284 32.8914 5.97464 34.7018 5.68559C36.071 5.45739 37.4402 5.19877 38.8246 4.8945C40.6197 4.49896 42.4149 4.02735 44.1948 3.46447C46.0204 2.90158 47.8308 2.2322 49.5955 1.47154L49.063 0.939076L53.7031 0.52832Z" fill="#F9C213"/>
</svg>
