<svg width="15" height="18" viewBox="0 0 15 18" fill="none" xmlns="http://www.w3.org/2000/svg">
<path d="M7.01621 0.415771C11.7019 0.415771 14.0447 1.80017 14.0447 4.56897V10.3196H3.1977V12.8754C3.1977 14.3663 4.47561 15.1117 7.03142 15.1117C9.58724 15.1117 10.8651 14.3663 10.8651 12.8754V11.5975H14.0599V13.5143C14.0599 16.2831 11.7171 17.6675 7.03142 17.6675C2.34576 17.6675 0.00292969 16.2831 0.00292969 13.5143V4.56897C0.00292969 1.80017 2.34577 0.415771 7.01621 0.415771ZM10.8499 7.76374V5.20792C10.8499 3.71703 9.57203 2.97159 7.01621 2.97159C4.4604 2.97159 3.18249 3.71703 3.18249 5.20792V7.76374H10.8499Z" fill="white"/>
</svg>
