<svg width="17" height="20" viewBox="0 0 17 20" fill="none" xmlns="http://www.w3.org/2000/svg">
<path d="M4.05601 19.5946C3.65041 19.4595 3.24481 19.1892 2.97441 18.6487C2.70401 18.3784 2.43361 17.973 2.02801 17.4324C1.4872 16.6216 0.946403 15.5405 0.540802 14.4595C0.1352 13.2432 0 12.027 0 10.8108C0 9.45946 0.270401 8.37838 0.811202 7.43243C1.2168 6.62162 1.8928 6.08108 2.56881 5.54054C3.24481 5.13514 4.05601 4.86487 4.86721 4.86487C5.13761 4.86487 5.40801 4.86487 5.81362 5C6.08402 5 6.35442 5.13514 6.76002 5.27027C7.16562 5.40541 7.43602 5.54054 7.57122 5.54054C7.84162 5.67568 8.11202 5.67568 8.24722 5.67568C8.38242 5.67568 8.51762 5.67568 8.78802 5.54054C8.92322 5.54054 9.19362 5.40541 9.46402 5.27027C9.73442 5.13514 10.0048 5 10.2752 5C10.5456 5 10.816 4.86487 11.0864 4.86487C11.3568 4.86487 11.7624 4.72973 12.0328 4.86487C12.5736 4.86487 13.1144 5 13.6552 5.27027C14.4664 5.54054 15.1424 6.21622 15.6832 6.89189C15.548 6.89189 15.2776 7.02703 15.1424 7.2973C14.7368 7.7027 14.3312 8.10811 14.0608 8.51351C13.7904 9.18919 13.52 9.86487 13.52 10.6757C13.52 11.6216 13.7904 12.4324 14.196 13.1081C14.4664 13.6486 15.0072 14.0541 15.4128 14.3243C15.8184 14.4595 16.0888 14.5946 16.224 14.7297C16.224 15 16.0888 15.4054 15.9536 15.5405C15.6832 16.3514 15.2776 16.8919 14.872 17.5676C14.4664 18.1081 14.196 18.5135 14.0608 18.6487C13.6552 19.0541 13.3848 19.4595 12.9792 19.5946C12.7088 19.8649 12.3032 20 11.7624 20C11.492 20 11.2216 20 10.9512 19.8649C10.816 19.8649 10.5456 19.7297 10.2752 19.5946C9.86963 19.4595 9.73442 19.3243 9.46402 19.3243C9.19362 19.1892 8.78802 19.1892 8.51762 19.1892C8.24722 19.1892 7.84162 19.1892 7.57122 19.3243C7.30082 19.3243 7.03042 19.4595 6.76002 19.5946C6.35442 19.7297 6.21922 19.8649 6.08402 19.8649C5.81361 20 5.54321 20 5.27281 20C4.86721 20 4.46161 19.8649 4.05601 19.5946ZM9.73442 4.18919C9.19362 4.45946 8.65282 4.5946 8.11202 4.5946C7.97682 4.05405 8.11202 3.51351 8.38242 2.83784C8.65282 2.2973 8.78802 1.89189 9.19362 1.48649C9.59922 1.08108 10.0048 0.675676 10.5456 0.405406C11.0864 0.135135 11.6272 0 12.168 0C12.168 0.540541 12.0328 1.08108 11.8976 1.75676C11.7624 2.2973 11.3568 2.7027 11.0864 3.10811C10.6808 3.64865 10.2752 3.91892 9.73442 4.18919Z" fill="white"/>
</svg>
