<svg width="15" height="18" viewBox="0 0 15 18" fill="none" xmlns="http://www.w3.org/2000/svg">
<path d="M7.77996 7.44426C12.4656 7.64203 14.8084 8.91994 14.8084 11.278V13.5143C14.8084 16.2831 12.4656 17.6675 7.77996 17.6675C3.0943 17.6675 0.751465 16.2831 0.751465 13.5143V11.5975H3.94623V12.8754C3.94623 14.3663 5.22414 15.1117 7.77996 15.1117C10.3358 15.1117 11.6137 14.3663 11.6137 12.8754V11.9169C11.6137 11.0041 10.3358 10.4717 7.77996 10.3196C3.30728 10.137 1.07094 8.7526 1.07094 6.16635V4.56897C1.07094 1.80017 3.30728 0.415771 7.77996 0.415771C12.2526 0.415771 14.489 1.80017 14.489 4.56897V6.48583H11.2942V5.20792C11.2942 3.71703 10.1228 2.97159 7.77996 2.97159C5.43713 2.97159 4.26571 3.71703 4.26571 5.20792V5.95337C4.26571 6.83574 5.43713 7.33777 7.77996 7.44426Z" fill="white"/>
</svg>
